<svg width="227" height="274" viewBox="0 0 227 274" fill="none" xmlns="http://www.w3.org/2000/svg">
<path d="M112.667 94.134C125 50 156 -2.99999 165.5 11.5" stroke="black" stroke-width="18" stroke-linecap="round"/>
<path d="M112.667 94.134C125 50 156 -2.99999 165.5 11.5" stroke="#1E812E" stroke-width="8" stroke-linecap="round"/>
<mask id="path-3-inside-1_5_7" fill="white">
<path d="M17.8849 112.826C31.0327 92.7025 50.2905 80 71.7376 80C87.1241 80 101.36 86.5553 113.049 97.6747C124.725 86.5553 138.961 80 154.347 80C193.976 80 226.085 123.315 226.085 176.747C226.085 230.167 193.976 273.481 154.347 273.481C152.047 273.481 149.758 273.333 147.507 273.048C124.588 270.117 101.496 270.117 78.5774 273.048C76.3264 273.333 74.0505 273.481 71.7376 273.481C50.2905 273.481 31.0327 260.779 17.8973 240.655C6.75323 223.611 0 201.249 0 176.747C0 152.245 6.75324 129.87 17.8849 112.826Z"/>
</mask>
<path d="M17.8849 112.826C31.0327 92.7025 50.2905 80 71.7376 80C87.1241 80 101.36 86.5553 113.049 97.6747C124.725 86.5553 138.961 80 154.347 80C193.976 80 226.085 123.315 226.085 176.747C226.085 230.167 193.976 273.481 154.347 273.481C152.047 273.481 149.758 273.333 147.507 273.048C124.588 270.117 101.496 270.117 78.5774 273.048C76.3264 273.333 74.0505 273.481 71.7376 273.481C50.2905 273.481 31.0327 260.779 17.8973 240.655C6.75323 223.611 0 201.249 0 176.747C0 152.245 6.75324 129.87 17.8849 112.826Z" fill="url(#paint0_linear_5_7)" stroke="black" stroke-width="18" mask="url(#path-3-inside-1_5_7)"/>
<path d="M195.501 206.438C194.859 206.438 194.209 206.37 193.556 206.231C188.545 205.161 185.351 200.232 186.42 195.223C187.709 189.19 188.361 182.974 188.361 176.747C188.361 149.452 173.502 117.723 154.347 117.723C149.224 117.723 145.071 113.571 145.071 108.446C145.071 103.322 149.224 99.17 154.347 99.17C182.842 99.17 206.914 134.696 206.914 176.747C206.914 184.273 206.123 191.792 204.565 199.094C203.633 203.453 199.783 206.438 195.501 206.438Z" fill="#FAEAE6"/>
<path d="M184.809 234.253C189.932 234.253 194.085 230.1 194.085 224.977C194.085 219.854 189.932 215.7 184.809 215.7C179.685 215.7 175.532 219.854 175.532 224.977C175.532 230.1 179.685 234.253 184.809 234.253Z" fill="#FAEAE6"/>
<defs>
<linearGradient id="paint0_linear_5_7" x1="113.042" y1="80" x2="113.042" y2="273.481" gradientUnits="userSpaceOnUse">
<stop stop-color="#C92C64"/>
<stop offset="1" stop-color="#670C27"/>
</linearGradient>
</defs>
</svg>
